<svg xmlns="http://www.w3.org/2000/svg" viewBox="0 0 100 100" width="100" height="100">
  <!-- Soccer ball background -->
  <circle cx="50" cy="50" r="48" fill="white" stroke="#333" stroke-width="2"/>

  <!-- Center pentagon -->
  <polygon points="50,25 61,37 57,52 43,52 39,37" fill="#333"/>

  <!-- Top pentagon -->
  <polygon points="50,5 60,15 55,20 45,20 40,15" fill="#333"/>

  <!-- Top-right pentagon -->
  <polygon points="80,25 85,40 78,45 68,38 70,28" fill="#333"/>

  <!-- Bottom-right pentagon -->
  <polygon points="75,70 80,60 72,53 62,58 62,70" fill="#333"/>

  <!-- Bottom pentagon -->
  <polygon points="50,95 40,85 45,78 55,78 60,85" fill="#333"/>

  <!-- Bottom-left pentagon -->
  <polygon points="25,70 20,60 28,53 38,58 38,70" fill="#333"/>

  <!-- Top-left pentagon -->
  <polygon points="20,25 15,40 22,45 32,38 30,28" fill="#333"/>

  <!-- Connecting lines -->
  <line x1="50" y1="25" x2="50" y2="20" stroke="#333" stroke-width="2"/>
  <line x1="61" y1="37" x2="68" y2="38" stroke="#333" stroke-width="2"/>
  <line x1="57" y1="52" x2="62" y2="58" stroke="#333" stroke-width="2"/>
  <line x1="43" y1="52" x2="38" y2="58" stroke="#333" stroke-width="2"/>
  <line x1="39" y1="37" x2="32" y2="38" stroke="#333" stroke-width="2"/>

  <line x1="55" y1="20" x2="70" y2="28" stroke="#333" stroke-width="2"/>
  <line x1="45" y1="20" x2="30" y2="28" stroke="#333" stroke-width="2"/>
  <line x1="78" y1="45" x2="72" y2="53" stroke="#333" stroke-width="2"/>
  <line x1="22" y1="45" x2="28" y2="53" stroke="#333" stroke-width="2"/>
  <line x1="62" y1="70" x2="60" y2="85" stroke="#333" stroke-width="2"/>
  <line x1="38" y1="70" x2="40" y2="85" stroke="#333" stroke-width="2"/>
</svg>
